<?xml version="1.0" encoding="utf-8"?>
<!-- Generator: Adobe Illustrator 24.1.1, SVG Export Plug-In . SVG Version: 6.00 Build 0)  -->
<svg version="1.1" id="Capa_1" xmlns="http://www.w3.org/2000/svg" xmlns:xlink="http://www.w3.org/1999/xlink" x="0px" y="0px"
	 viewBox="0 0 350 200" style="enable-background:new 0 0 350 200;" xml:space="preserve">
<style type="text/css">
	.st0{fill:#FFFFFF;}
</style>
<g>
	<path class="st0" d="M157.2,73.1c-1.7-1.8-4.1-2.8-6.7-2.8c-4.1,0-7.6,2.7-8.9,6.5c-0.3,1-0.5,2.1-0.5,3.2v58.3
		c0,5.4,4.2,9.7,9.5,9.7s9.5-4.3,9.5-9.7v-34.4v-24C160,77.3,158.9,74.8,157.2,73.1z"/>
	<path class="st0" d="M112.9,73.1c-1.7-1.8-4.1-2.8-6.7-2.8c-4.1,0-7.6,2.7-8.9,6.5c-0.3,1-0.5,2.1-0.5,3.2v58.3
		c0,5.4,4.2,9.7,9.5,9.7c5.2,0,9.5-4.3,9.5-9.7v-34.4v-24C115.6,77.3,114.6,74.8,112.9,73.1z"/>
	<path class="st0" d="M61.9,70.2H28.4H14.5c-2.6,0-5,1.1-6.7,2.8C6.1,74.8,5,77.2,5,79.9c0,4.2,2.7,7.8,6.3,9.2c1,0.4,2,0.5,3.1,0.5
		h14.2v48.6c0,5.4,4.2,9.7,9.5,9.7c5.2,0,9.5-4.3,9.5-9.7v-34.4V89.7h14.2c5.2,0,9.5-4.3,9.5-9.7C71.3,74.6,67.1,70.2,61.9,70.2z"/>
	<path class="st0" d="M320.7,101c-7.9-2.7-12.7-4.6-12.7-8.3c0-3.4,3.7-5.6,7.1-5.6c4.7,0,7.3,1.3,8.2,5c0.1,0.4,0.2,0.9,0.3,1.3
		c1.1,3.8,4.6,6.6,8.7,6.6c5,0,9.1-4.2,9.1-9.4c0-0.1,0-0.2,0-0.3c0,0,0,0,0,0l0,0c0-0.7-0.1-1.4-0.3-2.1l0,0
		c-1.3-8.4-10.9-17.1-25.7-17.1c-14.7,0-25.4,9-25.4,21.4c0,14.3,12.6,19,22.6,22.7c8.3,3.1,13.4,5.2,13.4,9.6
		c0,3.8-3.9,6.6-9.2,6.6c-6.9,0-11.6-1.2-12.3-8.4l0,0l0,0c-0.5-4.7-4.4-8.3-9.1-8.3c-5,0-9.1,4.2-9.1,9.4c0,0.3,0,0.7,0,1
		c0.7,15.7,13.8,22.4,30.4,22.4c15.5,0,27.3-10.2,27.3-23.7C344,108.8,331.1,104.5,320.7,101z"/>
	<g>
		<path class="st0" d="M224.9,99.4c-10.5,0-18.9-8.7-18.9-19.5h0c0-2.7-1.1-5.1-2.8-6.9c-1.7-1.8-4.1-2.8-6.7-2.8
			c-4.1,0-7.6,2.7-8.9,6.5c1.9,11.6,8.8,21.5,18.4,27.2c5.6,3.3,12,5.2,19,5.2c2.6,0,4.7-2.2,4.7-4.9
			C229.7,101.6,227.6,99.4,224.9,99.4z"/>
		<path class="st0" d="M262.8,79.9v58.3c0,5.4-4.2,9.7-9.5,9.7c-5.2,0-9.5-4.3-9.5-9.7v-34.4c9.6-5.7,16.5-15.6,18.4-27.2
			C262.7,77.7,262.8,78.8,262.8,79.9z"/>
		<path class="st0" d="M253.4,40.4c-6.6,0-12,5.5-12,12.3c0,3.4,1.4,6.6,3.6,8.8c0,0,0,0,0.1,0c2.5,0,5.2-1.1,6.8-2.8
			c0.2-0.3,0.6-0.3,0.9,0c0.2,0.2,0.3,0.6,0,0.9c-1.5,1.7-3.9,2.8-6.4,3.1c2,1.5,4.4,2.3,7,2.3c12,0,12,0,12-12.3
			C265.3,45.9,260,40.4,253.4,40.4z"/>
		<path class="st0" d="M260.1,73.1c-1.7-1.8-4.1-2.8-6.7-2.8c-5.2,0-9.5,4.4-9.5,9.7c0,10.7-8.5,19.5-19,19.5c2.6,0,4.7,2.2,4.7,4.9
			c0,2.7-2.1,4.9-4.7,4.9c6.9,0,13.4-1.9,19-5.2c9.6-5.7,16.5-15.6,18.4-27.2C261.8,75.3,261.1,74.1,260.1,73.1z"/>
		<path class="st0" d="M206,103.9v34.4c0,5.4-4.2,9.7-9.5,9.7s-9.5-4.3-9.5-9.7V79.9c0-1.1,0.2-2.2,0.5-3.2
			C189.5,88.3,196.4,98.2,206,103.9z"/>
		<path class="st0" d="M215.1,43.5c-7.3,0.8-8.9,0.2-8.9,0.2l0,0c-2.1-3.4-5.8-5.6-10-5.7c-6.6-0.1-12.1,5.6-12.1,12.4v2.2
			c0,6.8,5.4,12.4,12,12.4c2.6,0,5-0.9,6.9-2.3c-2.4-0.3-4.8-1.5-6.3-3.1c-0.2-0.3-0.3-0.6-0.1-0.8c0.2-0.2,0.6-0.1,0.9,0.1
			c1.9,1.3,4.5,2.3,7.1,2.3c2.2-2.2,3.4-5,3.4-8.4c0,0,0-2.2,0-2.5c0-0.5,0-1-0.1-1.5c-2.3,0.3-5.6,0.6-9,0.3c0-0.2,0-0.1,0-0.3
			c0.3,0,0.6,0,0.8-0.1c4.6-0.4,11.4-1.3,15.4-4.1C215.8,44.1,215.5,43.4,215.1,43.5z"/>
	</g>
</g>
</svg>
